<svg width="45" height="45" viewBox="0 0 45 45" fill="none" xmlns="http://www.w3.org/2000/svg">
<path d="M26.7188 19.6875H33.75" stroke="black" stroke-width="2" stroke-linecap="round" stroke-linejoin="round"/>
<path d="M26.7188 25.3125H33.75" stroke="black" stroke-width="2" stroke-linecap="round" stroke-linejoin="round"/>
<path d="M16.1894 25.3125C18.5193 25.3125 20.4081 23.4237 20.4081 21.0938C20.4081 18.7638 18.5193 16.875 16.1894 16.875C13.8594 16.875 11.9706 18.7638 11.9706 21.0938C11.9706 23.4237 13.8594 25.3125 16.1894 25.3125Z" stroke="black" stroke-width="2" stroke-linecap="round" stroke-linejoin="round"/>
<path d="M10.7402 29.5315C11.05 28.3216 11.7537 27.2491 12.7403 26.4833C13.7269 25.7174 14.9404 25.3018 16.1894 25.3018C17.4384 25.3018 18.6518 25.7174 19.6385 26.4833C20.6251 27.2491 21.3288 28.3216 21.6386 29.5315" stroke="black" stroke-width="2" stroke-linecap="round" stroke-linejoin="round"/>
<path d="M37.9688 8.4375H7.03125C6.2546 8.4375 5.625 9.0671 5.625 9.84375V35.1562C5.625 35.9329 6.2546 36.5625 7.03125 36.5625H37.9688C38.7454 36.5625 39.375 35.9329 39.375 35.1562V9.84375C39.375 9.0671 38.7454 8.4375 37.9688 8.4375Z" stroke="black" stroke-width="2" stroke-linecap="round" stroke-linejoin="round"/>
</svg>
