<svg width="45" height="45" viewBox="0 0 45 45" fill="none" xmlns="http://www.w3.org/2000/svg">
<path d="M1.40625 29.5313L5.32617 16.4707C5.41343 16.18 5.59241 15.9253 5.83637 15.7447C6.08033 15.5641 6.37616 15.4673 6.67969 15.4688H21.4453C21.7488 15.4673 22.0447 15.5641 22.2886 15.7447C22.5326 15.9253 22.7116 16.18 22.7988 16.4707L26.7188 29.5313" stroke="black" stroke-width="2" stroke-linecap="round" stroke-linejoin="round"/>
<path d="M28.125 15.4688H29.8828C30.1863 15.4673 30.4822 15.5641 30.7261 15.7447C30.9701 15.9253 31.1491 16.18 31.2363 16.4707L35.1562 29.5313" stroke="black" stroke-width="2" stroke-linecap="round" stroke-linejoin="round"/>
<path d="M36.5625 15.4688H38.3203C38.6238 15.4673 38.9197 15.5641 39.1636 15.7447C39.4076 15.9253 39.5866 16.18 39.6738 16.4707L43.5938 29.5313" stroke="black" stroke-width="2" stroke-linecap="round" stroke-linejoin="round"/>
<path d="M1.40625 29.5312H43.5938" stroke="black" stroke-width="2" stroke-linecap="round" stroke-linejoin="round"/>
</svg>
