<svg width="45" height="45" viewBox="0 0 45 45" fill="none" xmlns="http://www.w3.org/2000/svg">
<path d="M14.0625 25.3125C17.9458 25.3125 21.0938 22.1645 21.0938 18.2812C21.0938 14.398 17.9458 11.25 14.0625 11.25C10.1792 11.25 7.03125 14.398 7.03125 18.2812C7.03125 22.1645 10.1792 25.3125 14.0625 25.3125Z" stroke="black" stroke-width="2" stroke-linecap="round" stroke-linejoin="round"/>
<path d="M26.7188 14.0625H43.5938" stroke="black" stroke-width="2" stroke-linecap="round" stroke-linejoin="round"/>
<path d="M26.7188 22.5H43.5938" stroke="black" stroke-width="2" stroke-linecap="round" stroke-linejoin="round"/>
<path d="M30.9375 30.9375H43.5938" stroke="black" stroke-width="2" stroke-linecap="round" stroke-linejoin="round"/>
<path d="M3.16406 33.7506C3.78366 31.3307 5.19103 29.1858 7.16431 27.6541C9.13759 26.1224 11.5645 25.291 14.0625 25.291C16.5605 25.291 18.9874 26.1224 20.9607 27.6541C22.934 29.1858 24.3413 31.3307 24.9609 33.7506" stroke="black" stroke-width="2" stroke-linecap="round" stroke-linejoin="round"/>
</svg>
