<svg width="45" height="45" viewBox="0 0 45 45" fill="none" xmlns="http://www.w3.org/2000/svg">
<path d="M16.875 26.7188H28.125" stroke="black" stroke-width="2" stroke-linecap="round" stroke-linejoin="round"/>
<path d="M16.875 21.0938H28.125" stroke="black" stroke-width="2" stroke-linecap="round" stroke-linejoin="round"/>
<path d="M28.125 7.03125H35.1562C35.5292 7.03125 35.8869 7.17941 36.1506 7.44313C36.4143 7.70685 36.5625 8.06454 36.5625 8.4375V37.9688C36.5625 38.3417 36.4143 38.6994 36.1506 38.9631C35.8869 39.2268 35.5292 39.375 35.1562 39.375H9.84375C9.47079 39.375 9.1131 39.2268 8.84938 38.9631C8.58566 38.6994 8.4375 38.3417 8.4375 37.9688V8.4375C8.4375 8.06454 8.58566 7.70685 8.84938 7.44313C9.1131 7.17941 9.47079 7.03125 9.84375 7.03125H16.875" stroke="black" stroke-width="2" stroke-linecap="round" stroke-linejoin="round"/>
<path d="M15.4688 12.6562V11.25C15.4688 9.3852 16.2095 7.59677 17.5282 6.27816C18.8468 4.95954 20.6352 4.21875 22.5 4.21875C24.3648 4.21875 26.1532 4.95954 27.4718 6.27816C28.7905 7.59677 29.5312 9.3852 29.5312 11.25V12.6562H15.4688Z" stroke="black" stroke-width="2" stroke-linecap="round" stroke-linejoin="round"/>
</svg>
