<svg width="45" height="45" viewBox="0 0 45 45" fill="none" xmlns="http://www.w3.org/2000/svg">
<path d="M22.5 39.375C31.8198 39.375 39.375 31.8198 39.375 22.5C39.375 13.1802 31.8198 5.625 22.5 5.625C13.1802 5.625 5.625 13.1802 5.625 22.5C5.625 31.8198 13.1802 39.375 22.5 39.375Z" stroke="black" stroke-width="2" stroke-linecap="round" stroke-linejoin="round"/>
<path d="M22.5 28.125C26.3833 28.125 29.5312 24.977 29.5312 21.0938C29.5312 17.2105 26.3833 14.0625 22.5 14.0625C18.6167 14.0625 15.4688 17.2105 15.4688 21.0938C15.4688 24.977 18.6167 28.125 22.5 28.125Z" stroke="black" stroke-width="2" stroke-linecap="round" stroke-linejoin="round"/>
<path d="M11.215 35.0509C12.273 32.9669 13.8875 31.2165 15.8794 29.9939C17.8713 28.7712 20.1629 28.124 22.5001 28.124C24.8373 28.124 27.1289 28.7712 29.1208 29.9939C31.1128 31.2165 32.7272 32.9669 33.7853 35.0509" stroke="black" stroke-width="2" stroke-linecap="round" stroke-linejoin="round"/>
</svg>
